<?xml version="1.0" encoding="UTF-8" standalone="yes"?>
<svg version="1.2" width="504" height="504" baseProfile="tiny-ps" xmlns="http://www.w3.org/2000/svg">
  <title>bimi-svg-tiny-12-ps</title>
  <path d="M0 0 C166.32 0 332.64 0 504 0 C504 166.32 504 332.64 504 504 C337.68 504 171.36 504 0 504 C0 337.68 0 171.36 0 0 Z " fill="#7A7A7A" transform="translate(0,0)"/>
  <path d="M0 0 C1.19249359 -0.00607773 2.38498718 -0.01215546 3.61361694 -0.01841736 C4.89692902 0.00111496 6.18024109 0.02064728 7.50244141 0.04077148 C8.84941142 0.04503038 10.19638882 0.04735115 11.54336548 0.0478363 C14.36974318 0.0539978 17.19532728 0.0766496 20.02148438 0.11230469 C23.59938176 0.15714176 27.17655301 0.17230901 30.75470543 0.1760416 C33.54162434 0.18053253 36.32839858 0.19594977 39.11525345 0.21491814 C41.06179296 0.22783583 43.00836071 0.23625743 44.95492554 0.24452209 C66.67154172 0.52817229 87.61992413 4.82782299 103.88916016 20.27905273 C123.37376252 41.91242433 124.97911579 67.16794873 123.88671875 94.94604492 C122.86323228 113.80432757 114.51135046 132.24341918 100.82275391 145.25170898 C93.26820421 151.48836333 84.72468139 155.58189885 75.60400391 158.97436523 C74.67092407 159.33256348 74.67092407 159.33256348 73.71899414 159.69799805 C58.65460913 164.908605 41.81061261 163.97199219 26.12084961 163.9699707 C22.26128777 163.97439991 18.4028217 164.01098881 14.54345703 164.04858398 C12.08057028 164.05444331 9.61767816 164.05841861 7.15478516 164.06030273 C6.00585281 164.07467377 4.85692047 164.0890448 3.673172 164.10385132 C-4.25004751 164.05825059 -4.25004751 164.05825059 -8.21948242 161.69555664 C-11.19932238 158.22829741 -11.15228819 156.13590614 -11.17489624 151.62199402 C-11.1834967 150.34751907 -11.19209717 149.07304413 -11.20095825 147.75994873 C-11.20539361 146.33947795 -11.20969196 144.91900673 -11.21386719 143.49853516 C-11.22176715 142.00883289 -11.23003603 140.51913253 -11.23864746 139.0294342 C-11.26487865 134.12958609 -11.28017561 129.22972937 -11.29443359 124.32983398 C-11.29979272 122.64410204 -11.30517022 120.95837015 -11.31056595 119.27263832 C-11.33219578 112.26148183 -11.35093325 105.25032765 -11.36218834 98.23914623 C-11.37843262 88.18562303 -11.41162053 78.13248602 -11.46858919 68.07910842 C-11.50726612 61.01323092 -11.52681831 53.94745681 -11.5321089 46.88147622 C-11.53576533 42.65969717 -11.54781691 38.43832989 -11.58021164 34.21666527 C-11.61025332 30.24469813 -11.61661847 26.27339275 -11.60482788 22.30133629 C-11.60460682 20.84404536 -11.61293917 19.38672408 -11.63048172 17.92953873 C-11.65313895 15.9390505 -11.64190459 13.94826271 -11.6289978 11.95768738 C-11.63230795 10.84399371 -11.6356181 9.73030005 -11.63902855 8.58285809 C-10.32420323 2.23566403 -6.10466455 -0.02961944 0 0 Z " fill="#FCFCFC" transform="translate(53.02099609375,170.400634765625)"/>
  <path d="M0 0 C1.23234375 -0.03287109 2.4646875 -0.06574219 3.734375 -0.09960938 C4.92289062 -0.10669922 6.11140625 -0.11378906 7.3359375 -0.12109375 C8.42181152 -0.13454834 9.50768555 -0.14800293 10.62646484 -0.16186523 C14.69229959 0.65083826 16.07636375 2.21407096 18.625 5.4375 C20.01538086 8.42578125 20.01538086 8.42578125 21.08984375 11.75 C21.49444824 12.98065186 21.89905273 14.21130371 22.31591797 15.47924805 C22.73197774 16.79849757 23.14749422 18.11791854 23.5625 19.4375 C24.00051601 20.79172979 24.43948873 22.14565049 24.87939453 23.49926758 C27.68060171 32.17853568 30.27791103 40.91252723 32.71411133 49.70117188 C34.15132192 54.87533746 35.78407632 59.90542845 37.69921875 64.92578125 C39.15690192 68.88059256 40.34687929 72.91185757 41.56640625 76.9453125 C42.48668104 79.98120057 43.42847179 83.00937096 44.38134766 86.03515625 C46.80441716 93.73084028 49.14143111 101.45051304 51.45117188 109.1809082 C53.47280273 115.94453023 55.53339309 122.69514362 57.625 129.4375 C60.13693967 124.66605271 61.68157464 119.60584928 63.375 114.5 C63.73062012 113.43185059 64.08624023 112.36370117 64.45263672 111.26318359 C66.99648176 103.54018438 69.29972279 95.77234199 71.47998047 87.94018555 C73.00268444 82.50584939 74.67196025 77.15140114 76.5 71.8125 C79.02953354 64.40935395 81.2955039 56.94355079 83.5 49.4375 C86.27158514 40.00809261 89.06750678 30.58749642 91.9375 21.1875 C92.26282715 20.11113281 92.5881543 19.03476563 92.92333984 17.92578125 C97.42590373 3.23689752 97.42590373 3.23689752 101.625 0.4375 C104.32055664 0.17871094 104.32055664 0.17871094 107.53515625 0.171875 C109.26668945 0.16800781 109.26668945 0.16800781 111.03320312 0.1640625 C112.84208008 0.17566406 112.84208008 0.17566406 114.6875 0.1875 C115.89728516 0.17976562 117.10707031 0.17203125 118.35351562 0.1640625 C119.50658203 0.16664063 120.65964844 0.16921875 121.84765625 0.171875 C122.90734619 0.17413086 123.96703613 0.17638672 125.05883789 0.17871094 C127.625 0.4375 127.625 0.4375 129.625 2.4375 C130.15325724 8.7342225 128.92338381 13.63122422 126.8515625 19.5390625 C126.56775726 20.37915863 126.28395203 21.21925476 125.99154663 22.08480835 C125.08898774 24.74804259 124.16987102 27.40520207 123.25 30.0625 C122.63951064 31.85378727 122.03012516 33.64545115 121.421875 35.4375 C120.05598078 39.45574031 118.67889857 43.46995414 117.29278564 47.48126221 C116.73913703 49.10314246 116.20900466 50.73302833 115.68505859 52.36474609 C114.77770102 54.99487101 113.78374338 57.54472669 112.73486328 60.12011719 C110.55568195 65.5162931 108.68932786 70.99027421 106.8671875 76.515625 C106.52235825 77.55303329 106.17752899 78.59044159 105.82225037 79.6592865 C105.08958775 81.86480518 104.35830959 84.07078419 103.62832642 86.27719116 C102.48838318 89.72261125 101.34464816 93.16675232 100.19995117 96.6105957 C97.1934398 105.65911575 94.19516907 114.71035309 91.20304871 123.76364136 C83.52431517 146.99358782 83.52431517 146.99358782 80.1875 156.1875 C79.75566406 157.37859375 79.32382812 158.5696875 78.87890625 159.796875 C77.625 162.4375 77.625 162.4375 74.625 164.4375 C71.91434498 164.64535815 69.3089403 164.74153514 66.59765625 164.73828125 C65.81233017 164.74256638 65.02700409 164.7468515 64.21788025 164.75126648 C62.55777958 164.75700642 60.89765375 164.7575125 59.23754883 164.75317383 C56.70024601 164.75001586 54.16411161 164.77346885 51.62695312 164.79882812 C50.0130223 164.80110139 48.39908835 164.80180449 46.78515625 164.80078125 C46.0277565 164.809991 45.27035675 164.81920074 44.49000549 164.82868958 C40.13013329 164.79048166 37.76834881 164.47917822 34.625 161.4375 C33.35473347 158.73133755 33.35473347 158.73133755 32.2525177 155.39561462 C32.04562795 154.78192963 31.8387382 154.16824463 31.62557906 153.53596312 C30.93645913 151.48107353 30.26682367 149.42035889 29.59692383 147.35913086 C29.10651631 145.88373208 28.61491432 144.40872986 28.12220764 142.93409729 C26.78804531 138.92992126 25.47056884 134.92042918 24.15590119 130.90981746 C22.77821022 126.71677229 21.38499425 122.52889357 19.99333191 118.34046936 C17.35962601 110.40620612 14.73946349 102.46754085 12.12433594 94.52713734 C8.56873979 83.73330174 4.99407791 72.94578839 1.41998422 62.15806687 C0.56310289 59.57167219 -0.29370913 56.98525457 -1.15046692 54.39881897 C-1.42815471 53.56054977 -1.70584251 52.72228056 -1.99194509 51.85860926 C-3.64565371 46.86504619 -5.29612599 41.87042752 -6.94362104 36.87481105 C-7.96671372 33.77266069 -8.99082706 30.67084769 -10.01499367 27.56905174 C-10.49083547 26.12683317 -10.96613324 24.68443499 -11.44085693 23.24184799 C-12.08705101 21.27825316 -12.73505521 19.3152646 -13.38346863 17.35240173 C-13.92736882 15.70178442 -13.92736882 15.70178442 -14.48225689 14.01782131 C-15.29334115 11.49232873 -15.29334115 11.49232873 -16.375 9.4375 C-16.625 5.9375 -16.625 5.9375 -16.375 2.4375 C-11.42451776 -0.86282149 -5.81760411 0.02721332 0 0 Z " fill="#FDFDFD" transform="translate(332.375,169.5625)"/>
  <path d="M0 0 C1.28374763 -0.00591408 1.28374763 -0.00591408 2.59342957 -0.01194763 C5.41420553 -0.01864541 8.23335314 0.0104718 11.05395508 0.04077148 C13.0149962 0.04502216 14.97604235 0.04735022 16.93708801 0.0478363 C21.04195027 0.05399762 25.14626597 0.07668266 29.25097656 0.11230469 C34.52057611 0.15766636 39.78968197 0.17233546 45.05945873 0.1760416 C49.10599158 0.18046258 53.15242016 0.19575145 57.19890785 0.21491814 C59.1426336 0.22381439 61.08637051 0.23053755 63.03011131 0.23507881 C65.74031823 0.24408881 68.45007143 0.26644852 71.16015625 0.29296875 C71.96797546 0.29363342 72.77579468 0.2942981 73.60809326 0.29498291 C79.15680982 0.37018873 79.15680982 0.37018873 81.38598633 2.59936523 C81.83534182 5.87067323 81.71005239 9.17572384 81.69848633 12.47436523 C81.71459961 13.38573242 81.73071289 14.29709961 81.74731445 15.23608398 C81.74795898 16.11651367 81.74860352 16.99694336 81.74926758 17.90405273 C81.75224854 18.7082666 81.75522949 19.51248047 81.75830078 20.34106445 C81.27822735 23.25298528 80.44393414 24.48458182 78.38598633 26.59936523 C75.78535461 27.0803833 75.78535461 27.0803833 72.62939453 27.0534668 C70.85789787 27.05301361 70.85789787 27.05301361 69.0506134 27.05255127 C67.77554428 27.03190613 66.50047516 27.01126099 65.18676758 26.98999023 C63.88144577 26.98433044 62.57612396 26.97867065 61.23124695 26.97283936 C57.76379687 26.95757915 54.29701884 26.91829556 50.82983398 26.87402344 C47.29070288 26.83307816 43.75145976 26.81461079 40.2121582 26.79467773 C33.2695077 26.75392252 26.32870175 26.67563553 19.38598633 26.59936523 C19.38598633 39.46936523 19.38598633 52.33936523 19.38598633 65.59936523 C24.7478418 65.5471582 24.7478418 65.5471582 30.21801758 65.49389648 C33.67316895 65.47051235 37.12831158 65.45228921 40.58349609 65.43457031 C42.98815851 65.41946708 45.39279331 65.39898315 47.79736328 65.37304688 C51.25015063 65.33673173 54.70257437 65.31965423 58.15551758 65.30639648 C59.23372269 65.29091263 60.3119278 65.27542877 61.42280579 65.25947571 C62.42361679 65.25924911 63.4244278 65.25902252 64.45556641 65.25878906 C65.3371492 65.25212723 66.21873199 65.24546539 67.12702942 65.23860168 C69.86810342 65.67636107 70.72543045 66.4151646 72.38598633 68.59936523 C73.45206212 72.24743962 73.54934072 75.81333433 73.57348633 79.59936523 C73.58766602 80.60999023 73.6018457 81.62061523 73.61645508 82.66186523 C73.37631648 85.72261482 72.77480948 87.87044956 71.38598633 90.59936523 C68.92437615 91.83017032 67.3210164 91.71980501 64.5690918 91.71289062 C63.56820526 91.71281509 62.56731873 91.71273956 61.53610229 91.71266174 C60.4527359 91.70750046 59.36936951 91.70233917 58.25317383 91.69702148 C57.14620148 91.69560654 56.03922913 91.69419159 54.89871216 91.69273376 C51.3527764 91.68712296 47.8069031 91.6745686 44.26098633 91.66186523 C41.86124765 91.65685163 39.46150799 91.65228848 37.06176758 91.64819336 C31.1697969 91.63799964 25.27796178 91.61842626 19.38598633 91.59936523 C19.38598633 106.77936523 19.38598633 121.95936523 19.38598633 137.59936523 C23.6940332 137.57616211 28.00208008 137.55295898 32.44067383 137.52905273 C35.87046695 137.51619557 39.30025329 137.50534829 42.73005676 137.49586487 C46.3535341 137.48529281 49.97691825 137.47115953 53.6003418 137.44848633 C57.08867443 137.42679444 60.57691657 137.41480438 64.06531143 137.40961075 C66.04738604 137.40410355 68.02942412 137.38848489 70.01144409 137.37277222 C71.21253815 137.37262115 72.4136322 137.37247009 73.65112305 137.37231445 C74.71257538 137.36787323 75.77402771 137.36343201 76.86764526 137.3588562 C79.38598633 137.59936523 79.38598633 137.59936523 81.38598633 139.59936523 C82.49281152 143.57258387 82.5828592 147.49086721 82.63598633 151.59936523 C82.66176758 152.79561523 82.68754883 153.99186523 82.71411133 155.22436523 C82.34116035 159.06043239 81.89076357 160.67580959 79.38598633 163.59936523 C76.44806114 164.10779101 74.08080803 164.27374974 71.13842773 164.23046875 C70.29746048 164.23762405 69.45649323 164.24477936 68.59004211 164.25215149 C65.8053278 164.26908322 63.02221365 164.2496072 60.23754883 164.22827148 C58.30325182 164.22909993 56.36895487 164.23155839 54.43466187 164.23558044 C50.37753141 164.23844171 46.32095199 164.22370802 42.26391602 164.19628906 C37.06609047 164.16225127 31.86925346 164.16820627 26.671381 164.18695164 C22.67530094 164.19752837 18.67945031 164.1885769 14.68339157 164.17356682 C12.76726335 164.16838642 10.85111115 164.16886508 8.93498611 164.17511177 C6.2535798 164.18057027 3.57358001 164.16016742 0.89233398 164.1328125 C0.10150925 164.13933838 -0.68931549 164.14586426 -1.50410461 164.15258789 C-6.49231847 164.06618036 -9.12506751 163.19277479 -12.61401367 159.59936523 C-13.98137938 156.86463382 -13.75257515 154.68450561 -13.76791382 151.62199402 C-13.77651428 150.34751907 -13.78511475 149.07304413 -13.79397583 147.75994873 C-13.79841119 146.33947795 -13.80270954 144.91900673 -13.80688477 143.49853516 C-13.81478472 142.00883289 -13.82305361 140.51913253 -13.83166504 139.0294342 C-13.85789623 134.12958609 -13.87319319 129.22972937 -13.88745117 124.32983398 C-13.89281029 122.64410204 -13.8981878 120.95837015 -13.90358353 119.27263832 C-13.92521336 112.26148183 -13.94395083 105.25032765 -13.95520592 98.23914623 C-13.97145019 88.18562303 -14.0046381 78.13248602 -14.06160676 68.07910842 C-14.1002837 61.01323092 -14.11983589 53.94745681 -14.12512648 46.88147622 C-14.1287829 42.65969717 -14.14083449 38.43832989 -14.17322922 34.21666527 C-14.2032709 30.24469813 -14.20963604 26.27339275 -14.19784546 22.30133629 C-14.1976244 20.84404536 -14.20595675 19.38672408 -14.2234993 17.92953873 C-14.24615653 15.9390505 -14.23492217 13.94826271 -14.22201538 11.95768738 C-14.22532553 10.84399371 -14.22863567 9.73030005 -14.23204613 8.58285809 C-12.6292783 0.84564896 -6.91213171 -0.1278915 0 0 Z " fill="#FCFCFC" transform="translate(218.614013671875,170.400634765625)"/>
  <path d="M0 0 C40.18371608 0 40.18371608 0 52 10 C52.97066406 10.78697266 52.97066406 10.78697266 53.9609375 11.58984375 C62.71179025 19.4044699 67.4601362 31.94525472 68.14794922 43.48144531 C68.80777604 61.93689994 67.82649392 81.80203343 56 97 C47.38171994 105.61828006 37.90142777 107.83610404 26 110 C17.42 110 8.84 110 0 110 C0 73.7 0 37.4 0 0 Z " fill="#686868" transform="translate(75,197)"/>
  <path d="M0 0 C0.33 0 0.66 0 1 0 C0.7527505 6.5026618 -0.07577812 11.91499916 -2.6953125 17.87109375 C-4.49264544 22.18146405 -5.98093883 26.58524108 -7.5 31 C-13.82629108 49.23943662 -13.82629108 49.23943662 -17 54 C-16.40605288 48.38719975 -14.94253763 43.53439283 -13 38.25 C-9.90087072 29.62186486 -6.94991694 20.95126996 -4.0625 12.25 C-3.46018555 10.43677246 -3.46018555 10.43677246 -2.84570312 8.58691406 C-1.8958702 5.72502615 -0.94724177 2.86274639 0 0 Z " fill="#A5A6A5" transform="translate(435,256)"/>
  <path d="M0 0 C9.9 0 19.8 0 30 0 C22.45388682 5.03074212 10.62777257 3.24024231 2 2 C1.34 1.34 0.68 0.68 0 0 Z " fill="#A4A4A4" transform="translate(374,334)"/>
  <path d="M0 0 C0.99 0.66 1.98 1.32 3 2 C0.33333333 8.66666667 -2.33333333 15.33333333 -5 22 C-5.66 22 -6.32 22 -7 22 C-5.0827282 14.49068545 -2.75950985 7.24196241 0 0 Z " fill="#A5A5A5" transform="translate(417,310)"/>
  <path d="M0 0 C4.348169 0.65881348 7.99638116 2.21267016 12 4 C13.6642135 4.67276716 15.32986582 5.34206835 17 6 C17 6.66 17 7.32 17 8 C12.98570903 7.42652986 10.42388355 6.11954696 7 4 C4.68984863 2.93414728 2.35345287 1.96906883 0 1 C0 0.67 0 0.34 0 0 Z " fill="#737373" transform="translate(129,174)"/>
  <path d="M0 0 C2 4 2 4 1.3125 6.625 C0 9 0 9 -3 11 C-2.01 7.37 -1.02 3.74 0 0 Z " fill="#A7A7A7" transform="translate(439,244)"/>
  <path d="M0 0 C2 4 2 4 1.3125 6.625 C0 9 0 9 -3 11 C-2.01 7.37 -1.02 3.74 0 0 Z " fill="#A8A8A8" transform="translate(443,232)"/>
</svg>